<svg xmlns="http://www.w3.org/2000/svg" width="143.781" height="139" viewBox="0 0 143.781 139">
  <metadata><?xpacket begin="﻿" id="W5M0MpCehiHzreSzNTczkc9d"?>
<x:xmpmeta xmlns:x="adobe:ns:meta/" x:xmptk="Adobe XMP Core 5.6-c142 79.160924, 2017/07/13-01:06:39        ">
   <rdf:RDF xmlns:rdf="http://www.w3.org/1999/02/22-rdf-syntax-ns#">
      <rdf:Description rdf:about=""/>
   </rdf:RDF>
</x:xmpmeta>
                                                                                                    
                                                                                                    
                                                                                                    
                                                                                                    
                                                                                                    
                                                                                                    
                                                                                                    
                                                                                                    
                                                                                                    
                                                                                                    
                                                                                                    
                                                                                                    
                                                                                                    
                                                                                                    
                                                                                                    
                                                                                                    
                                                                                                    
                                                                                                    
                                                                                                    
                                                                                                    
                           
<?xpacket end="w"?></metadata>
<defs>
    <style>
      .cls-1 {
        fill: #059feb;
        fill-rule: evenodd;
      }
    </style>
  </defs>
  <path id="Forma_1" data-name="Forma 1" class="cls-1" d="M746.421,1712.07a26.041,26.041,0,1,1,26.258-26.04A26.175,26.175,0,0,1,746.421,1712.07Zm0-43.69a17.651,17.651,0,1,0,17.8,17.65A17.744,17.744,0,0,0,746.421,1668.38Zm-11.643,19.75a2.106,2.106,0,0,1-2.114-2.1l-0.009-.42a5.339,5.339,0,0,1,.119-1.44,2.115,2.115,0,0,1,4.155.79,1.51,1.51,0,0,0-.045.51l0.011,0.56A2.11,2.11,0,0,1,734.778,1688.13Zm1.965-6.43a2.118,2.118,0,0,1-1.176-.35,2.088,2.088,0,0,1-.579-2.91,13.781,13.781,0,0,1,11.433-6.06,2.1,2.1,0,1,1,0,4.2,9.549,9.549,0,0,0-7.919,4.19A2.1,2.1,0,0,1,736.743,1681.7Zm68.885,30.37a26.041,26.041,0,1,1,26.258-26.04A26.175,26.175,0,0,1,805.628,1712.07Zm0-43.69a17.651,17.651,0,1,0,17.8,17.65A17.744,17.744,0,0,0,805.628,1668.38Zm-9.678,13.32a2.116,2.116,0,0,1-1.176-.35,2.088,2.088,0,0,1-.579-2.91,13.781,13.781,0,0,1,11.433-6.06,2.1,2.1,0,1,1,0,4.2,9.549,9.549,0,0,0-7.919,4.19A2.1,2.1,0,0,1,795.95,1681.7Zm12.484,117.31H729.906c-8.219,0-14.909-5.3-14.909-13.16v-54.81c0-8.17,6.963-15.92,14.909-15.92h78.528c8.082,0,14.658,7.06,14.658,15.22,0,0.11,0,.42-0.011.52l-0.105,1.57c6.218-3.21,15.73-8.17,22.376-11.69a13.222,13.222,0,0,1,5.793-1.53,7.034,7.034,0,0,1,5.219,2.16c2.639,2.65,2.423,6.58,2.423,8.25v56.66c0,2.52-.363,4.38-1.416,5.82a6.939,6.939,0,0,1-5.8,2.71h0.131a20.308,20.308,0,0,1-5.71-1.14,4.269,4.269,0,0,1-.693-0.31c-8.1-4.23-16.823-8.72-22.442-11.51l0.218,3.49a1.556,1.556,0,0,0,.013-0.18C823.086,1793.16,816.651,1799.01,808.434,1799.01Zm-78.528-75.5c-3.3,0-6.451,3.97-6.451,7.53v54.81c0,3.26,2.861,4.77,6.451,4.77h78.528c3.438,0,6.138-2.1,6.2-5.35l-0.624-10.14a3.923,3.923,0,0,1,1.142-3.02,4.167,4.167,0,0,1,3.078-1.27c1.257,0,2.246.03,30.691,14.88,0.44,0.13,1.07.33,1.66,0.47l0-56.7a11.886,11.886,0,0,0-.072-1.75,8.458,8.458,0,0,0-1.332.53c-29.2,15.49-29.57,15.49-30.951,15.49a4.251,4.251,0,0,1-3.1-1.33,4.2,4.2,0,0,1-1.123-3.16l0.62-9.06c-0.07-3.42-2.878-6.71-6.2-6.71H729.906v0.01Zm-0.107,26.01a2.1,2.1,0,0,1-2.115-2.09v-10.66c0-3.88,3.421-9.07,7.665-9.07H753.31a2.1,2.1,0,1,1,0,4.19H735.349c-1.546,0-3.436,2.92-3.436,4.88v10.66A2.1,2.1,0,0,1,729.8,1749.52Zm34.084-17.62h-2.115a2.1,2.1,0,1,1,0-4.2h2.115A2.1,2.1,0,1,1,763.883,1731.9Z" transform="translate(-715 -1660)"/>
</svg>
