<svg xmlns="http://www.w3.org/2000/svg" width="195" height="128" viewBox="0 0 195 128">
  <metadata><?xpacket begin="﻿" id="W5M0MpCehiHzreSzNTczkc9d"?>
<x:xmpmeta xmlns:x="adobe:ns:meta/" x:xmptk="Adobe XMP Core 5.6-c142 79.160924, 2017/07/13-01:06:39        ">
   <rdf:RDF xmlns:rdf="http://www.w3.org/1999/02/22-rdf-syntax-ns#">
      <rdf:Description rdf:about=""/>
   </rdf:RDF>
</x:xmpmeta>
                                                                                                    
                                                                                                    
                                                                                                    
                                                                                                    
                                                                                                    
                                                                                                    
                                                                                                    
                                                                                                    
                                                                                                    
                                                                                                    
                                                                                                    
                                                                                                    
                                                                                                    
                                                                                                    
                                                                                                    
                                                                                                    
                                                                                                    
                                                                                                    
                                                                                                    
                                                                                                    
                           
<?xpacket end="w"?></metadata>
<defs>
    <style>
      .cls-1 {
        fill: #059feb;
        fill-rule: evenodd;
      }
    </style>
  </defs>
  <path id="Forma_1" data-name="Forma 1" class="cls-1" d="M1795.1,1666H1619.9a9.923,9.923,0,0,0-9.9,9.93v108.14a9.923,9.923,0,0,0,9.9,9.93h175.2a9.923,9.923,0,0,0,9.9-9.93V1675.93A9.923,9.923,0,0,0,1795.1,1666Zm-175.2,6.34h175.2a3.585,3.585,0,0,1,3.58,3.59v20.49h-3.58a0.22,0.22,0,0,1-.21-0.22v-6.75a6.543,6.543,0,0,0-6.53-6.55H1626.64a6.543,6.543,0,0,0-6.53,6.55v6.75a0.22,0.22,0,0,1-.21.22h-3.58v-20.49A3.585,3.585,0,0,1,1619.9,1672.34Zm175.2,115.32H1619.9a3.585,3.585,0,0,1-3.58-3.59v-81.32h3.58a6.549,6.549,0,0,0,6.53-6.55v-6.75a0.214,0.214,0,0,1,.21-0.22h161.72a0.214,0.214,0,0,1,.21.22v6.75a6.549,6.549,0,0,0,6.53,6.55h3.58v81.32A3.585,3.585,0,0,1,1795.1,1787.66Zm-14.37-77.73H1634.27a3.147,3.147,0,0,0-2.56,1.32,43.651,43.651,0,0,0,0,51.02,3.165,3.165,0,0,0,2.56,1.31h146.46a3.179,3.179,0,0,0,2.56-1.31,43.651,43.651,0,0,0,0-51.02A3.147,3.147,0,0,0,1780.73,1709.93Zm-29.64,20.63a6.966,6.966,0,0,1,0,12.4v-12.4Zm-6.32,26.69h-74.54v-40.98h74.54v40.98Zm-95.6,0a27.28,27.28,0,0,1,0-40.98h6.55a23.465,23.465,0,0,0,0,40.98h-6.55Zm14.74-14.29a6.966,6.966,0,0,1,0-12.4v12.4Zm0-19.12a13.311,13.311,0,0,0,0,25.84v3.89a17.115,17.115,0,0,1,0-33.62v3.89Zm-34.12,12.92a37.14,37.14,0,0,1,6.14-20.49h4.6a33.718,33.718,0,0,0,0,40.98h-4.6A37.14,37.14,0,0,1,1629.79,1736.76Zm149.28,20.49h-27.98v-7.57a13.311,13.311,0,0,0,0-25.84v-7.57h27.98A37.259,37.259,0,0,1,1779.07,1757.25Z" transform="translate(-1610 -1666)"/>
</svg>
