<svg xmlns="http://www.w3.org/2000/svg" width="177" height="143" viewBox="0 0 177 143">
  <metadata><?xpacket begin="﻿" id="W5M0MpCehiHzreSzNTczkc9d"?>
<x:xmpmeta xmlns:x="adobe:ns:meta/" x:xmptk="Adobe XMP Core 5.6-c142 79.160924, 2017/07/13-01:06:39        ">
   <rdf:RDF xmlns:rdf="http://www.w3.org/1999/02/22-rdf-syntax-ns#">
      <rdf:Description rdf:about=""/>
   </rdf:RDF>
</x:xmpmeta>
                                                                                                    
                                                                                                    
                                                                                                    
                                                                                                    
                                                                                                    
                                                                                                    
                                                                                                    
                                                                                                    
                                                                                                    
                                                                                                    
                                                                                                    
                                                                                                    
                                                                                                    
                                                                                                    
                                                                                                    
                                                                                                    
                                                                                                    
                                                                                                    
                                                                                                    
                                                                                                    
                           
<?xpacket end="w"?></metadata>
<defs>
    <style>
      .cls-1 {
        fill: #059feb;
        fill-rule: evenodd;
      }
    </style>
  </defs>
  <path id="Forma_1" data-name="Forma 1" class="cls-1" d="M1314.96,1770H1156.04a9.071,9.071,0,0,1-9.04-9.08v-85.84a9.071,9.071,0,0,1,9.04-9.08h158.92a9.071,9.071,0,0,1,9.04,9.08v85.84A9.071,9.071,0,0,1,1314.96,1770Zm-158.92-96.67a1.75,1.75,0,0,0-1.74,1.75v85.84a1.743,1.743,0,0,0,1.74,1.75h158.92a1.743,1.743,0,0,0,1.74-1.75v-85.84a1.75,1.75,0,0,0-1.74-1.75H1156.04Zm60.56,72.54a3.75,3.75,0,0,1-1.97-3.26v-49.22a3.644,3.644,0,0,1,5.76-2.98l34.45,24.6a3.687,3.687,0,0,1,0,5.98s-25.84,18.45-34.45,24.61A3.333,3.333,0,0,1,1216.6,1745.87Zm5.33-45.37v35l24.49-17.5Zm98.42,90.32h-69.76a14.431,14.431,0,0,0-27.96,0h-71.98a3.665,3.665,0,0,0,0,7.33h71.98a14.431,14.431,0,0,0,27.96,0h69.76A3.665,3.665,0,0,0,1320.35,1790.82Zm-83.74,10.85a7.185,7.185,0,1,1,7.15-7.19A7.183,7.183,0,0,1,1236.61,1801.67Z" transform="translate(-1147 -1666)"/>
</svg>
